<svg width="110" height="110" viewBox="0 0 110 110" fill="none" xmlns="http://www.w3.org/2000/svg">
<rect width="109.991" height="109.991" rx="16" fill="#4F9BD8"/>
<rect x="13.8711" y="13.8672" width="82.2457" height="82.2457" rx="8" fill="white"/>
<rect x="67.3809" y="67.3906" width="24.7735" height="5.94563" rx="2.97281" fill="#5AB132"/>
<rect x="76.2979" y="83.2344" width="25.7644" height="5.94563" rx="2.97282" transform="rotate(-90 76.2979 83.2344)" fill="#5AB132"/>
<path d="M64.0092 28.6406C64.0092 32.2969 61.3842 34.125 56.1342 34.125L53.3686 34.0312L50.5092 34.125H46.0092C41.3842 34.125 38.603 34.5156 37.6655 35.2969C36.228 36.5156 35.5092 40.2188 35.5092 46.4062C35.5092 48.25 36.2749 49.4531 37.8061 50.0156C39.3374 50.5469 42.978 50.8125 48.728 50.8125C54.5092 50.8125 57.7124 51.0781 58.3374 51.6094C58.9936 52.1406 59.3217 53.5312 59.3217 55.7812C59.3217 58.0312 58.5874 59.3906 57.1186 59.8594C56.3686 60.1094 53.0874 60.2344 47.2749 60.2344C41.4936 60.2344 37.9155 60.7656 36.5405 61.8281C35.1967 62.8594 34.5249 65.7812 34.5249 70.5938C34.5249 75.4062 35.3061 78.2656 36.8686 79.1719C38.4624 80.0781 42.728 80.5312 49.6655 80.5312C56.603 80.5312 60.8217 80.8594 62.3217 81.5156C63.853 82.1719 64.6186 83.6406 64.6186 85.9219C64.6186 87.8594 63.3217 89.0469 60.728 89.4844C57.228 90.0781 51.3061 90.375 42.9624 90.375H37.9936C31.2749 90.375 27.1186 89.9219 25.5249 89.0156C23.5874 87.9219 22.6186 84.2344 22.6186 77.9531V69.6094C22.6186 64.2031 22.8217 58.6562 23.228 52.9688C23.6342 47.2812 23.8374 41.6406 23.8374 36.0469C23.8374 30.4219 24.4311 27.0781 25.6186 26.0156C27.1811 24.6094 31.0249 23.9062 37.1499 23.9062H46.6186L48.1655 23.9531L54.3061 23.9062C57.9624 23.9062 60.4936 24.2188 61.8999 24.8438C63.3061 25.4687 64.0092 26.7344 64.0092 28.6406Z" fill="#5AB132"/>
</svg>
