<svg width="36" height="34" viewBox="0 0 36 34" fill="none" xmlns="http://www.w3.org/2000/svg">
<path d="M15.8207 1.38193C16.4194 -0.460688 19.0262 -0.460688 19.6249 1.38193L22.4376 10.0385C22.7053 10.8625 23.4732 11.4204 24.3397 11.4204H33.4417C35.3792 11.4204 36.1847 13.8997 34.6173 15.0385L27.2536 20.3885C26.5526 20.8978 26.2593 21.8005 26.527 22.6246L29.3397 31.2811C29.9384 33.1237 27.8295 34.656 26.262 33.5172L18.8983 28.1672C18.1974 27.6579 17.2482 27.6579 16.5472 28.1672L9.18352 33.5172C7.61609 34.656 5.50713 33.1237 6.10583 31.2811L8.91851 22.6246C9.18626 21.8005 8.89294 20.8978 8.19197 20.3885L0.828276 15.0385C-0.739152 13.8997 0.0663979 11.4204 2.00384 11.4204H11.1059C11.9723 11.4204 12.7402 10.8625 13.008 10.0385L15.8207 1.38193Z" fill="#7C5ACB"/>
</svg>
