<svg width="36" height="34" viewBox="0 0 36 34" fill="none" xmlns="http://www.w3.org/2000/svg">
<path d="M16.7716 1.69092C17.071 0.769607 18.3746 0.769608 18.674 1.69092L21.4865 10.3472C21.8881 11.5832 23.0403 12.4204 24.34 12.4204H33.4415C34.4102 12.4204 34.8129 13.6595 34.0294 14.229L26.6661 19.5796C25.6147 20.3435 25.1747 21.698 25.5763 22.9341L28.3888 31.5903C28.6879 32.5115 27.6334 33.2777 26.8497 32.7085L19.4865 27.3579C18.435 26.594 17.0106 26.594 15.9591 27.3579L8.59583 32.7085C7.81218 33.2777 6.75765 32.5115 7.05676 31.5903L9.86926 22.9341C10.2709 21.698 9.83088 20.3435 8.77942 19.5796L1.41614 14.229C0.632645 13.6595 1.03537 12.4204 2.00403 12.4204H11.1056C12.4053 12.4204 13.5575 11.5832 13.9591 10.3472L16.7716 1.69092Z" stroke="#7C5ACB" stroke-width="2"/>
</svg>
